<svg id="Сгруппировать_3061" data-name="Сгруппировать 3061" xmlns="http://www.w3.org/2000/svg" width="466.123" height="100.041" viewBox="0 0 466.123 100.041">
  <path id="Контур_1075" data-name="Контур 1075" d="M196.522,54.11c0-3.158,3.057-5.4,8.15-5.4s8.558,2.14,9.577,6.825l10.7-2.955C223.01,43,214.961,37.81,204.672,37.81c-12.122,0-19.661,7.029-19.661,16.1,0,21.7,28.932,12.631,28.932,23.431,0,3.565-3.057,5.7-8.864,5.7-5.6,0-9.475-2.648-10.594-8.252l-11.41,2.547c1.426,10.9,10.085,16.5,21.7,16.5,13.142,0,21.5-7.131,21.5-17.624,0-21.5-29.747-12.123-29.747-22.106" transform="translate(-183.075 -15.906)" fill="#fff"/>
  <path id="Контур_1076" data-name="Контур 1076" d="M301.905,81.469h-.918L291.31,39.5H275.315l-9.78,41.972h-.916L255.043,39.5H242.207l14.059,53.382h17.013l9.678-41.87h.612l9.677,41.87h16.911L324.318,39.5H311.583Z" transform="translate(-195.79 -16.269)" fill="#fff"/>
  <path id="Контур_1077" data-name="Контур 1077" d="M402.963,79.986V39.133H390.941v6.52h-.916c-2.344-3.26-7.233-7.843-16.2-7.843-14.263,0-24.857,11.816-24.857,28.014s10.8,28.016,25.162,28.016c9.271,0,13.957-4.788,15.994-8.048h.918a7.288,7.288,0,0,0,7.639,6.723h9.067V82.329h-2.343a2.174,2.174,0,0,1-2.444-2.342m-26.692,2.24c-8.456,0-15.077-6.213-15.077-16.3,0-9.882,6.418-16.605,14.975-16.605,8.15,0,14.977,6.011,14.977,16.605,0,9.067-5.807,16.3-14.874,16.3" transform="translate(-218.747 -15.906)" fill="#fff"/>
  <path id="Контур_1078" data-name="Контур 1078" d="M463.073,37.81a18.788,18.788,0,0,0-15.79,7.741h-.916V39.133h-11.92v76.814h12.021V85.792h.916c2.242,3.26,7.03,8.048,16.5,8.048,14.262,0,24.655-12.022,24.655-28.016,0-16.1-11.1-28.014-25.469-28.014m-1.731,44.722c-8.253,0-15.077-6.113-15.077-16.708,0-9.066,5.8-16.707,14.874-16.707,8.454,0,15.077,6.622,15.077,16.707,0,9.881-6.419,16.708-14.874,16.708" transform="translate(-237.127 -15.906)" fill="#fff"/>
  <path id="Контур_1079" data-name="Контур 1079" d="M524.6,54.11c0-3.158,3.057-5.4,8.15-5.4s8.558,2.14,9.576,6.825l10.7-2.955C551.083,43,543.035,37.81,532.745,37.81c-12.123,0-19.662,7.029-19.662,16.1,0,21.7,28.932,12.631,28.932,23.431,0,3.565-3.056,5.7-8.862,5.7-5.6,0-9.475-2.648-10.6-8.252l-11.41,2.547c1.426,10.9,10.085,16.5,21.7,16.5,13.141,0,21.495-7.131,21.495-17.624,0-21.5-29.748-12.123-29.748-22.106" transform="translate(-253.62 -15.906)" fill="#fff"/>
  <path id="Контур_1080" data-name="Контур 1080" d="M582.753,9.906a7.4,7.4,0,0,0-7.641,7.436,7.548,7.548,0,0,0,1.529,4.623v0a7.557,7.557,0,0,0,6.112,2.917,7.489,7.489,0,1,0,0-14.976" transform="translate(-267.374 -9.906)" fill="#fff"/>
  <path id="Контур_1081" data-name="Контур 1081" d="M577.059,50.092V92.879h12.022V39.5H577.059Z" transform="translate(-267.793 -16.269)" fill="#fff"/>
  <path id="Контур_1082" data-name="Контур 1082" d="M631.68,82.431c-9.169,0-15.688-7.03-15.688-16.607,0-9.371,6.316-16.605,15.586-16.605,7.234,0,12.938,4.382,14.364,11.31l11.409-2.751C654.3,44.839,643.8,37.81,631.271,37.81c-16.3,0-27.608,12.428-27.608,28.014s11.1,28.016,27.709,28.016c12.53,0,23.023-6.927,26.08-19.865l-11.41-2.751c-1.426,6.927-7.131,11.206-14.364,11.206" transform="translate(-273.514 -15.906)" fill="#fff"/>
  <path id="Контур_1083" data-name="Контур 1083" d="M694.572,10.166H682.551V86.572h12.021V10.166Z" transform="translate(-290.477 -9.962)" fill="#fff"/>
  <path id="Контур_1084" data-name="Контур 1084" d="M762.4,65.519c0-15.892-9.882-27.709-26.181-27.709-14.364,0-26.692,11.307-26.692,28.116,0,16.3,10.9,27.914,27.2,27.914,11.105,0,20.886-5.5,24.349-16.605l-11-2.649c-1.935,5.909-7.539,8.966-13.447,8.966-8.761,0-14.568-5.706-14.67-14.671H762.4Zm-40.342-5.4c.713-6.418,6.52-11.817,14.161-11.817,7.333,0,13.345,4.583,13.956,11.817Z" transform="translate(-296.278 -15.906)" fill="#fff"/>
</svg>
